<svg width="40" height="41" viewBox="0 0 40 41" fill="none" xmlns="http://www.w3.org/2000/svg">
<path fill-rule="evenodd" clip-rule="evenodd" d="M35.7261 0.610535L31.2582 6.42922L0 6.42922C0 7.36283 0.184237 8.29098 0.546432 9.19487C0.791158 9.80561 1.11713 10.4053 1.52241 10.9881C2.5275 12.4334 4.00069 13.7467 5.85786 14.8529C7.71503 15.9591 9.91982 16.8366 12.3463 17.4353C14.0638 17.859 15.8685 18.1372 17.7078 18.2636C17.6783 18.4358 17.6629 18.6138 17.6629 18.7958L17.6629 31.6284C17.6629 31.7615 17.6712 31.8924 17.6871 32.0205L5.46773 37.8943C5.14116 38.0512 4.94253 38.3277 4.89009 38.6416C4.81697 38.8195 4.77611 39.0182 4.77611 39.2277C4.77611 39.9914 5.31885 40.6105 5.98834 40.6105H34.2107C34.8801 40.6105 35.4229 39.9914 35.4229 39.2277C35.4229 39.0188 35.3823 38.8208 35.3096 38.6433C35.2577 38.3285 35.0589 38.0511 34.7316 37.8937L22.4891 32.0088C22.5041 31.8845 22.5118 31.7575 22.5118 31.6284L22.5118 18.7958C22.5118 18.6094 22.4956 18.4273 22.4648 18.2513C24.2444 18.1196 25.99 17.8457 27.6537 17.4353C30.0802 16.8366 32.285 15.9591 34.1421 14.8529C35.9993 13.7467 37.4725 12.4334 38.4776 10.9881C38.8829 10.4053 39.2088 9.80561 39.4536 9.19487C39.8158 8.29098 40 7.36283 40 6.42922H37.3336C37.6158 5.77802 37.7871 5.11955 37.8375 4.48265C37.8578 4.2264 37.8585 3.97365 37.839 3.72626C37.7277 2.31506 36.9677 1.1943 35.7261 0.610535ZM29.1345 9.19487L27.5501 11.2584C28.7916 11.8421 30.4131 11.8411 32.0576 11.2554C32.3459 11.1527 32.6308 11.0336 32.9104 10.8993C33.8021 10.4709 34.6405 9.88843 35.3666 9.19487H36.6293C36.6125 9.21963 36.5955 9.24443 36.5782 9.26929C35.8369 10.3353 34.6612 11.4237 33.02 12.4013C31.3868 13.3741 29.3934 14.1764 27.1411 14.7321C24.8925 15.2869 22.4641 15.5764 20 15.5764C17.5359 15.5764 15.1075 15.2869 12.8588 14.7321C10.6066 14.1764 8.61316 13.3741 6.98004 12.4013C5.3388 11.4237 4.16314 10.3353 3.4218 9.26929C3.40452 9.24443 3.38749 9.21963 3.37072 9.19487L29.1345 9.19487ZM19.1748 34.1915C19.4565 34.3221 19.7646 34.3941 20.0874 34.3941C20.4152 34.3941 20.7277 34.3199 21.0129 34.1854L28.6259 37.8449H11.5745L19.1748 34.1915Z" fill="black"/>
</svg>
